<svg viewBox="0 0 250 156" version="1.1" xmlns="http://www.w3.org/2000/svg" xml:space="preserve" fill-rule="evenodd" clip-rule="evenodd" stroke-linejoin="round" stroke-miterlimit="2">
  <path d="M47.939 49.654c-4.633.33-9.434 1.954-13.306 4.491-1.794 1.179-2.233 1.535-3.975 3.272-4.788 4.795-7.46 10.415-7.976 16.758-.155 1.991-.013 5.429.271 6.532.065.241.207.876.336 1.396.671 2.93 2.168 6.254 4.026 8.981 2.272 3.311 3.962 4.96 7.524 7.319 2.943 1.941 6.905 3.501 10.583 4.136 1.329.241 6.943.228 8.26 0 3.768-.66 6.582-1.637 9.55-3.298 2.272-1.269 3.678-2.335 5.679-4.313 1.458-1.434 1.832-1.891 3.162-3.793 2.219-3.21 3.6-6.635 4.349-10.745.361-2.042.387-6.051.051-8.118-.283-1.713-1.187-4.846-1.755-6.089-.064-.14-.335-.711-.581-1.269-1.974-4.338-5.885-8.714-9.976-11.163-2.323-1.382-4.297-2.296-6.349-2.943-1.497-.469-4.453-1.027-5.872-1.116-.71-.038-1.549-.089-1.872-.114-.322-.025-1.278.013-2.129.076zm4.452 3.4c2.736.38 5.214 1.091 7.421 2.143 2.555 1.231 4.504 2.601 6.595 4.643 1.471 1.446 2.039 2.106 2.981 3.501 1.368 2.017 2.207 3.654 2.827 5.557 1.019 3.082 1.277 4.858 1.174 8.118-.065 2.144-.116 2.613-.568 4.453-.245 1.027-.89 3.082-1.161 3.678-.401.914-1.239 2.487-1.407 2.677-.103.101-.181.266-.181.342 0 .089-.051.153-.129.153-.064 0-.129.063-.129.139 0 .355-1.897 2.727-3.278 4.11C65 94.09 64.6 94.42 62.496 95.841c-2.645 1.788-6.504 3.133-10.002 3.488l-1.006.102V93.9h2.323c2.413 0 2.646-.038 3.136-.571.323-.33.477-.748.477-1.243 0-.558-.245-.977-.761-1.319-.413-.279-.555-.292-2.801-.292h-2.374v-2.156c0-1.193.026-2.157.051-2.157.026 0 .491.14 1.033.317 2.917.939 6.44.584 9.24-.926 2.027-1.091 2.904-1.75 4.35-3.273 1.677-1.75 2.039-2.194 2.387-2.943.297-.647.22-1.217-.193-1.484-.555-.342-2.788-.774-4.917-.951-.839-.076-1.575-.152-1.627-.19-.051-.026.104-.635.336-1.332.619-1.84.826-3.184.826-5.392 0-1.674-.258-4.655-.452-5.251-.038-.114-.18-.99-.309-1.941-.323-2.245-.53-2.639-1.381-2.639-.684 0-3.601 1.358-5.059 2.36-.452.304-.852.558-.904.558-.051 0-.232-.33-.4-.736-.736-1.7-2.813-4.909-3.846-5.924-.774-.761-1.561-.583-2.362.546-.232.33-.503.659-.58.723-.478.38-2.904 4.541-2.904 4.972a.747.747 0 01-.116.279c-.104.153-.31.064-1.097-.482-1.601-1.078-4.298-2.296-5.098-2.296-.503 0-.891.47-1.046 1.282-.193.964-.761 4.642-.916 6.012-.077.622-.116 2.055-.077 3.172.064 2.169.322 3.552.942 5.175.193.482.31.888.284.914-.026.038-.775.114-1.665.19-1.587.139-3.665.495-4.595.799-.567.178-.877.672-.748 1.231.142.634 1.303 2.093 2.942 3.716 1.549 1.535 1.678 1.624 4.221 3.045 2.568 1.446 6.311 1.687 9.46.609l.735-.254v4.427h-2.387c-2.633 0-2.917.063-3.407.748-.181.254-.271.571-.271.977 0 .546.051.647.58 1.155l.581.545h4.904v5.594l-.413-.063c-.232-.038-.71-.102-1.071-.14-2.039-.228-5.407-1.23-7.369-2.182-2.362-1.167-4.827-3.006-6.814-5.099a54.572 54.572 0 01-.788-.825c-.593-.621-2.594-3.615-3.187-4.782-.981-1.953-1.73-4.326-2.117-6.774-.284-1.687-.31-4.795-.064-6.533.154-1.091.826-3.945.993-4.198.039-.064.233-.584.452-1.155.581-1.573 1.407-2.994 3.291-5.619.245-.356 1.213-1.396 2.155-2.322 1.807-1.801 3.653-3.133 6.027-4.364 2.156-1.116 4.904-1.94 8.131-2.422.658-.102 4.349-.076 5.162.038zm-2.362 7.839c.439.584 1.214 2.169 1.678 3.451 1.097 2.993 1.588 6.317 1.33 9.006-.284 3.032-1.42 6.393-2.582 7.675a5.449 5.449 0 00-.542.672c-.193.292-.193.279-.851-.495-.736-.888-.723-.875-1.498-2.676a16.563 16.563 0 01-.916-2.918c-.594-2.854-.413-6.825.465-9.679.142-.495.297-1.002.335-1.142a1.63 1.63 0 01.181-.393c.065-.076.232-.469.374-.862.387-1.117 1.446-2.994 1.678-2.994.039 0 .206.165.348.355zm9.344 5.226c.529 3.108.375 6.698-.361 8.373-.865 1.966-1.084 2.321-2.001 3.222-1.006.989-1.91 1.7-1.91 1.509 0-.063.142-.533.31-1.027.968-2.791 1.213-6.584.658-10.098l-.232-1.522.439-.355c.916-.774 2.658-1.916 2.788-1.827l.309 1.725zm-17.719-.964c.555.381 1.2.863 1.445 1.066l.439.368-.22 1.319c-.503 3.07-.4 6.393.31 9.248.22.875.452 1.636.516 1.712.207.216.117.33-.154.19-.426-.228-.891-.634-1.794-1.535-.813-.824-.942-1.052-1.885-3.222-.761-1.75-.8-5.987-.103-9.488.039-.19.155-.343.271-.343.103 0 .633.305 1.175.685zM40.57 80.631c.296.241.735.622.98.838.594.52 1.626 1.192 2.44 1.598.361.177.632.368.593.444-.051.063-.632.114-1.303.114-1.368 0-2.672-.292-3.962-.875-.813-.368-2.62-1.624-3.175-2.22l-.31-.33h4.207l.53.431zm22.456.051c-1.614 1.446-2.827 2.131-4.698 2.639a7.074 7.074 0 01-2.13.291c-1.626-.012-1.652-.088-.322-.85.994-.57 3.071-2.169 3.2-2.46.026-.064 1.046-.102 2.259-.102l2.22.013-.529.469z" fill="#fff" fill-rule="nonzero"/>
  <path d="M31.806 71.561a1.705 1.705 0 00-.464.343c-.942 1.053-.258 2.664 1.097 2.638 1.536-.025 2.194-1.573 1.136-2.625-.413-.394-1.265-.571-1.769-.356zm34.446 0c-.142.064-.426.292-.607.52-1.006 1.168.22 2.842 1.743 2.385.761-.228 1.058-.621 1.058-1.446 0-.596-.052-.736-.4-1.078-.426-.419-1.265-.596-1.794-.381z" fill="#fff" fill-rule="nonzero"/>
  <text x="83.937" y="88.286" font-family="'RedditSans-Regular','Reddit Sans'" font-size="29.154" fill="#fff" transform="matrix(1 0 0 .98291 0 1.509)">
    blum
  </text>
  <text x="149.051" y="88.286" font-family="'RedditSans-Regular','Reddit Sans'" font-size="29.154" fill="#fff" transform="matrix(1 0 0 .98291 0 1.509)">
    e
  </text>
  <path d="M166.598 88.286V73.299h3.79v1.863h.554l-1.342 1.576c.467-1.204 1.137-2.092 1.983-2.722.845-.631 1.837-.946 3.003-.946 1.02 0 1.866.258 2.595.745.699.487 1.195 1.175 1.545 2.035l-.758-.688h1.02l-.962.688a4.9 4.9 0 012.128-2.064c.933-.487 1.925-.716 3.003-.716.933 0 1.75.172 2.42.487.641.344 1.166.774 1.545 1.318.408.545.671 1.147.846 1.806.175.659.262 1.318.262 2.006v9.599h-3.936v-9.084c0-.917-.233-1.633-.641-2.12-.408-.487-.991-.745-1.72-.745a2.73 2.73 0 00-1.283.315c-.408.229-.7.544-.933.974-.233.43-.35.946-.35 1.576v9.084h-3.936v-9.084c0-.917-.204-1.633-.612-2.12-.408-.487-.991-.745-1.749-.745-.7 0-1.312.229-1.808.716-.495.487-.729 1.232-.729 2.207v9.026h-3.935zm29.174.23c-1.021 0-1.924-.201-2.712-.602-.758-.43-1.37-.974-1.807-1.662a4.25 4.25 0 01-.671-2.321c0-.917.263-1.691.758-2.379.496-.688 1.225-1.232 2.216-1.605.991-.401 2.216-.601 3.674-.601h3.381v2.55h-3.352c-.904 0-1.633.172-2.129.459-.524.286-.787.773-.787 1.404 0 .372.088.716.292.974s.466.459.816.602c.35.143.758.2 1.195.2.409 0 .904-.086 1.429-.258a3.177 3.177 0 001.399-.859c.409-.401.613-.917.613-1.548v-1.547l-.234-.774v-1.92c0-.315-.058-.63-.145-.917-.088-.258-.263-.516-.467-.745a2.42 2.42 0 00-.845-.487c-.35-.115-.758-.172-1.254-.172s-.991.057-1.516.143c-.554.115-1.049.258-1.545.43a8.128 8.128 0 00-1.225.573l-1.282-2.98a7.955 7.955 0 011.545-.659 15.847 15.847 0 012.099-.516c.787-.143 1.603-.2 2.449-.2 1.399 0 2.507.172 3.294.544.817.373 1.4.86 1.75 1.433.379.573.641 1.175.728 1.805.117.602.175 1.175.175 1.691v4.671c0 .573.059 1.003.146 1.289.146.287.379.488.729.602l.35.115-1.429 3.267-.466-.172c-.846-.316-1.429-.659-1.808-1.089-.379-.401-.612-.831-.67-1.232l.758.487h-1.254l.846-.401c-.321.63-.963 1.174-1.895 1.662-.904.487-1.954.745-3.149.745zm11.513-.23V73.299h3.936v14.987h-3.936zm1.953-16.878c-.7 0-1.283-.258-1.778-.717a2.467 2.467 0 01-.7-1.748c0-.687.233-1.289.7-1.748.495-.458 1.078-.716 1.778-.716s1.283.258 1.779.716c.466.459.699 1.061.699 1.748a2.47 2.47 0 01-.699 1.748c-.496.459-1.079.717-1.779.717zm9.154 17.108c-.845 0-1.574-.172-2.128-.545-.554-.344-.962-.86-1.253-1.461-.263-.602-.409-1.318-.409-2.092V66.737h3.936v17.222c0 .201.029.43.059.631.058.172.174.315.32.458.146.115.35.172.642.172.145 0 .262-.028.379-.028.087-.029.204-.058.291-.086v3.123c-.262.057-.554.143-.874.201a5.499 5.499 0 01-.963.086z" fill="#fff" fill-rule="nonzero"/>
</svg>
