<svg fill="#000" viewBox="0 0 14 14" role="img" focusable="false" aria-hidden="true" xmlns="http://www.w3.org/2000/svg">
  <path d="M11.923 1.617l-3.938.656c-.266.045-.235.316-.235.414H6.383a1.313 1.313 0 10-2.482.099c-1.22.306-1.767 1.27-2.11 2.13a.562.562 0 101.044.418c.674-1.686 1.422-1.521 2.853-1.521v.634A2.28 2.28 0 004 6.653v5.785c0 .31.252.562.563.562h3.375c.31 0 .562-.252.562-.563V6.625a2.25 2.25 0 00-1.687-2.179v-.633h.937c0 .07-.04.368.235.414l3.938.656a.281.281 0 00.327-.278v-2.71a.281.281 0 00-.327-.278zm-6.798 1.07a.375.375 0 110-.75.375.375 0 010 .75z"/>
</svg>
