<svg viewBox="0 0 24 24" fill="none" xmlns="http://www.w3.org/2000/svg">
  <path opacity=".1" fill-rule="evenodd" clip-rule="evenodd" d="M12 21a9 9 0 100-18 9 9 0 000 18zm0-12.25a3.25 3.25 0 100 6.5 3.25 3.25 0 000-6.5z" fill="#323232"/>
  <path d="M21 12a9 9 0 11-18 0 9 9 0 0118 0z" stroke="#323232" stroke-width="2"/>
  <path d="M15 12a3 3 0 11-6 0 3 3 0 016 0z" stroke="#323232" stroke-width="2"/>
  <path d="M6 6l3.5 3.5M18 6l-3.5 3.5M18 18l-3.5-3.5M6 18l3.5-3.5" stroke="#323232" stroke-width="2" stroke-linecap="round"/>
</svg>
